<svg width="192" height="192" viewBox="0 0 192 192" fill="none" xmlns="http://www.w3.org/2000/svg">
  <path d="M96 16L176 96L96 176L16 96L96 16Z" fill="#FDB813"/>
  <path d="M96 32L160 96L96 160L32 96L96 32Z" fill="#FF6B6B"/>
  <path d="M96 48L144 96L96 144L48 96L96 48Z" fill="#4ECDC4"/>
  <path d="M88 80C88 73.3726 93.3726 68 100 68C106.627 68 112 73.3726 112 80C112 86.6274 106.627 92 100 92C93.3726 92 88 86.6274 88 80Z" fill="white"/>
  <path d="M100 92C100 98.6274 94.6274 104 88 104C81.3726 104 76 98.6274 76 92C76 85.3726 81.3726 80 88 80C94.6274 80 100 85.3726 100 92Z" fill="white"/>
</svg>

